<svg xmlns="http://www.w3.org/2000/svg" xmlns:xlink="http://www.w3.org/1999/xlink" xml:space="preserve" version="1.1" style="shape-rendering:geometricPrecision;text-rendering:geometricPrecision;image-rendering:optimizeQuality;" viewBox="0 0 333 416.25" x="0px" y="0px" fill-rule="evenodd" clip-rule="evenodd"><defs><style type="text/css">
   
    .fil0 {fill:black}
   
  </style></defs><g><g><path class="fil0" d="M74 59c22,17 42,33 62,48 20,16 39,31 57,48 -14,2 -28,4 -41,7 -14,3 -28,7 -42,11 -12,14 -24,28 -37,44 27,-15 53,-27 80,-36 26,-8 53,-13 79,-17 -13,-16 -26,-32 -39,-47 -13,-15 -27,-30 -42,-44 -4,3 -9,7 -13,10 -21,-8 -42,-16 -64,-24z"/><path class="fil0" d="M235 164c-12,-17 -25,-33 -37,-48 -13,-15 -27,-30 -41,-44 22,11 44,23 65,35 4,-1 8,-2 12,-3 6,9 12,18 17,27 6,10 11,19 16,30 -10,0 -21,2 -32,3z"/><path class="fil0" d="M270 160c-10,-19 -20,-37 -32,-55l43 47 30 6c-14,0 -28,1 -41,2z"/><path class="fil0" d="M178 155c-11,2 -23,3 -35,6 -12,2 -24,6 -35,9 -15,18 -29,36 -44,56 38,-21 74,-38 112,-48 36,-9 73,-12 109,-15 -42,6 -86,13 -128,29 -45,16 -89,46 -134,82 13,-21 25,-42 38,-61 11,-18 23,-36 34,-52 14,-2 28,-4 42,-5 14,-1 27,-1 41,-1z"/></g></g><text x="0" y="348" fill="#000000" font-size="5px" font-weight="bold" font-family="'Helvetica Neue', Helvetica, Arial-Unicode, Arial, Sans-serif">Created by Rafina Andra</text><text x="0" y="353" fill="#000000" font-size="5px" font-weight="bold" font-family="'Helvetica Neue', Helvetica, Arial-Unicode, Arial, Sans-serif">from the Noun Project</text></svg>